<svg viewBox="0 0 186 186" fill="none" xmlns="http://www.w3.org/2000/svg">
<path d="M36.4975 168.019C49.0238 177.454 63.713 183.601 79.2251 185.902L80.7913 175.339C67.043 173.3 54.0239 167.851 42.9219 159.49L36.4975 168.019Z" fill="white"/>
<path d="M149.502 17.9806C136.976 8.54621 122.287 2.39854 106.775 0.0985033L105.209 10.6614C118.957 12.6999 131.976 18.1486 143.078 26.5103L149.502 17.9806Z" fill="white"/>
<path d="M0 106.093C2.18626 121.622 8.22607 136.356 17.5684 148.951L26.145 142.589C17.8649 131.426 12.5118 118.368 10.5741 104.605L0 106.093Z" fill="white"/>
<path d="M186 79.9066C183.814 64.378 177.774 49.6441 168.432 37.049L159.855 43.4107C168.135 54.5737 173.488 67.6324 175.426 81.3953L186 79.9066Z" fill="white"/>
<path d="M17.9806 36.4975C8.54621 49.0238 2.39854 63.713 0.0984998 79.2251L10.6614 80.7913C12.6999 67.043 18.1486 54.0239 26.5103 42.9219L17.9806 36.4975Z" fill="white"/>
<path d="M168.019 149.502C177.454 136.976 183.601 122.287 185.902 106.775L175.339 105.209C173.3 118.957 167.851 131.976 159.49 143.078L168.019 149.502Z" fill="white"/>
<path d="M79.9066 0C64.378 2.18626 49.6441 8.22607 37.049 17.5684L43.4107 26.145C54.5737 17.8649 67.6323 12.5118 81.3953 10.5741L79.9066 0Z" fill="white"/>
<path d="M106.093 186C121.622 183.814 136.356 177.774 148.951 168.432L142.589 159.855C131.426 168.135 118.368 173.488 104.605 175.426L106.093 186Z" fill="white"/>
</svg>
